<?xml version="1.0" encoding="UTF-8"?>
<!DOCTYPE svg PUBLIC "-//W3C//DTD SVG 1.1//EN" "http://www.w3.org/Graphics/SVG/1.1/DTD/svg11.dtd">
<!-- Creator: CorelDRAW X6 -->
<svg xmlns="http://www.w3.org/2000/svg" xml:space="preserve" width="14.3mm" height="14.3mm" version="1.1" style="shape-rendering:geometricPrecision; text-rendering:geometricPrecision; image-rendering:optimizeQuality; fill-rule:evenodd; clip-rule:evenodd"
viewBox="0 0 1430 1430"
 xmlns:xlink="http://www.w3.org/1999/xlink">
 <defs>
  <style type="text/css">
   <![CDATA[
    .fil0 {fill:black}
   ]]>
  </style>
 </defs>
 <g id="Слой_x0020_1">
  <metadata id="CorelCorpID_0Corel-Layer"/>
  <path class="fil0" d="M573 33c91,-38 193,-38 284,0l240 100c91,38 163,110 200,200l100 240c38,91 38,193 0,284l-100 240c-38,91 -110,163 -200,200l-240 100c-91,38 -193,38 -284,0l-240 -100c-91,-38 -163,-110 -200,-200l-100 -240c-38,-91 -38,-193 0,-284l100 -240c38,-91 110,-163 200,-200l240 -100zm20 358c1,0 2,0 3,0l255 0c1,0 2,0 3,0 19,0 34,0 48,5 12,4 24,11 34,20 11,10 18,23 28,40 1,1 1,2 2,3l1 1c7,12 13,23 17,32 4,9 8,20 7,33 -2,17 -11,32 -24,42 -7,5 -14,7 -21,9 0,3 1,7 1,10 0,7 -1,16 -2,25l-27 311c-1,16 -3,30 -4,41 -2,12 -5,23 -11,33 -9,16 -23,29 -40,37 -11,5 -22,7 -34,8 -11,1 -25,1 -41,1l-125 0c-16,0 -30,0 -41,-1 -12,-1 -23,-3 -34,-8 -17,-8 -31,-21 -40,-37 -6,-10 -9,-21 -11,-33 -2,-11 -3,-25 -4,-41l-9 -102c0,0 0,-1 0,-1l-6 -65c0,0 0,-1 0,-1l-12 -141c-1,-9 -2,-18 -2,-25 0,-3 0,-7 1,-10 -7,-1 -15,-4 -21,-9 -14,-10 -23,-25 -24,-42 -1,-13 3,-24 7,-33 4,-9 10,-19 17,-32 0,0 0,-1 1,-1 1,-1 1,-2 2,-3 9,-16 17,-30 28,-40 10,-9 21,-15 34,-20 14,-5 29,-5 48,-5zm-10 132c0,0 -1,0 -1,0 -1,0 -1,0 -2,0l-30 0c-15,0 -25,0 -32,-1 -4,0 -6,-1 -6,-1 -1,-1 -2,-2 -2,-4 0,-1 1,-2 2,-6 3,-6 8,-15 15,-28 12,-21 15,-26 19,-30 4,-4 9,-7 14,-8 5,-2 11,-2 35,-2l255 0c24,0 30,0 35,2 5,2 10,5 14,8 4,4 7,9 19,30 8,13 12,22 15,28 2,3 2,5 2,6 0,1 -1,3 -2,4 -1,0 -2,1 -6,1 -7,1 -17,1 -32,1l-30 0c-1,0 -1,0 -2,0l-283 0zm0 53c-10,0 -17,0 -21,0 -2,0 -3,0 -4,1 -1,1 -2,2 -3,3 0,0 0,2 0,4 0,5 1,11 1,21l10 117 314 0 10 -117c1,-10 1,-17 1,-21 0,-2 0,-3 0,-4 -1,-1 -1,-2 -3,-3 0,0 -2,0 -4,-1 -5,0 -11,0 -21,0l-282 0zm307 1c0,0 0,0 0,0l0 0zm-13 197l-305 0 1 13 303 0 1 -13zm-6 66l-294 0 6 73c2,18 3,29 4,38 1,9 3,13 4,15 4,7 10,12 17,16 3,1 7,2 15,3 9,1 21,1 38,1l123 0c18,0 29,0 38,-1 9,-1 13,-2 15,-3 7,-3 13,-9 17,-16 1,-3 3,-6 4,-15 1,-9 2,-20 4,-38l6 -73z"/>
 </g>
</svg>
