<?xml version="1.0" encoding="UTF-8"?>
<!DOCTYPE svg PUBLIC "-//W3C//DTD SVG 1.1//EN" "http://www.w3.org/Graphics/SVG/1.1/DTD/svg11.dtd">
<!-- Creator: CorelDRAW X6 -->
<svg xmlns="http://www.w3.org/2000/svg" xml:space="preserve" width="14.3mm" height="14.3mm" version="1.1" style="shape-rendering:geometricPrecision; text-rendering:geometricPrecision; image-rendering:optimizeQuality; fill-rule:evenodd; clip-rule:evenodd"
viewBox="0 0 1430 1430"
 xmlns:xlink="http://www.w3.org/1999/xlink">
 <defs>
  <style type="text/css">
   <![CDATA[
    .fil0 {fill:black}
   ]]>
  </style>
 </defs>
 <g id="Слой_x0020_1">
  <metadata id="CorelCorpID_0Corel-Layer"/>
  <path class="fil0" d="M573 33c91,-38 193,-38 284,0l240 100c91,38 163,110 200,200l100 240c38,91 38,193 0,284l-100 240c-38,91 -110,163 -200,200l-240 100c-91,38 -193,38 -284,0l-240 -100c-91,-38 -163,-110 -200,-200l-100 -240c-38,-91 -38,-193 0,-284l100 -240c38,-91 110,-163 200,-200l240 -100zm54 361c13,7 18,22 12,36l-33 66c-7,13 -22,18 -35,12 -13,-7 -18,-22 -12,-36l33 -66c7,-13 22,-18 35,-12zm99 0c13,7 18,22 12,36l-33 66c-7,13 -22,18 -36,12 -13,-7 -18,-22 -12,-36l33 -66c7,-13 22,-18 35,-12zm99 0c13,7 18,22 12,36l-33 66c-7,13 -22,18 -36,12 -13,-7 -18,-22 -12,-36l33 -66c7,-13 22,-18 36,-12zm-345 215c-2,0 -4,2 -4,4l0 135c0,113 92,205 205,205 113,0 205,-92 205,-205l0 -135c0,-2 -2,-4 -4,-4l-402 0zm454 -20c-9,-20 -29,-33 -52,-33l-402 0c-31,0 -57,26 -57,57l0 135c0,84 40,158 101,205l-75 0c-15,0 -26,12 -26,26 0,15 12,26 26,26l463 0c15,0 26,-12 26,-26 0,-15 -12,-26 -26,-26l-75 0c47,-36 81,-87 95,-146l30 0c60,0 109,-49 109,-109 0,-60 -49,-109 -109,-109l-28 0zm5 53l0 112 23 0c31,0 56,-25 56,-56 0,-31 -25,-56 -56,-56l-23 0z"/>
 </g>
</svg>
