<?xml version="1.0" encoding="UTF-8"?>
<!DOCTYPE svg PUBLIC "-//W3C//DTD SVG 1.1//EN" "http://www.w3.org/Graphics/SVG/1.1/DTD/svg11.dtd">
<!-- Creator: CorelDRAW X6 -->
<svg xmlns="http://www.w3.org/2000/svg" xml:space="preserve" width="14.3mm" height="14.3mm" version="1.1" style="shape-rendering:geometricPrecision; text-rendering:geometricPrecision; image-rendering:optimizeQuality; fill-rule:evenodd; clip-rule:evenodd"
viewBox="0 0 1430 1430"
 xmlns:xlink="http://www.w3.org/1999/xlink">
 <defs>
  <style type="text/css">
   <![CDATA[
    .fil0 {fill:black}
   ]]>
  </style>
 </defs>
 <g id="Слой_x0020_1">
  <metadata id="CorelCorpID_0Corel-Layer"/>
  <path class="fil0" d="M573 33c91,-38 193,-38 284,0l240 100c91,38 163,110 200,200l100 240c38,91 38,193 0,284l-100 240c-38,91 -110,163 -200,200l-240 100c-91,38 -193,38 -284,0l-240 -100c-91,-38 -163,-110 -200,-200l-100 -240c-38,-91 -38,-193 0,-284l100 -240c38,-91 110,-163 200,-200l240 -100zm-25 883c56,30 110,43 161,40 57,-4 107,-28 148,-69 81,-81 122,-224 110,-403 -1,-13 -11,-24 -25,-25 -179,-12 -323,29 -403,110 -41,41 -65,91 -69,148 -3,51 10,106 40,161l-46 46c-10,10 -10,27 0,37 10,10 27,10 37,0l46 -46zm39 -39l102 -102c10,-10 10,-27 0,-37 -10,-10 -27,-10 -37,0l-102 102c-21,-43 -29,-83 -26,-119 3,-43 21,-82 53,-114 62,-62 179,-102 339,-96 6,160 -33,277 -96,339 -32,32 -71,50 -114,53 -35,2 -75,-6 -119,-26z"/>
 </g>
</svg>
