<?xml version="1.0" encoding="UTF-8"?>
<!DOCTYPE svg PUBLIC "-//W3C//DTD SVG 1.1//EN" "http://www.w3.org/Graphics/SVG/1.1/DTD/svg11.dtd">
<!-- Creator: CorelDRAW X6 -->
<svg xmlns="http://www.w3.org/2000/svg" xml:space="preserve" width="14.3mm" height="14.3mm" version="1.1" style="shape-rendering:geometricPrecision; text-rendering:geometricPrecision; image-rendering:optimizeQuality; fill-rule:evenodd; clip-rule:evenodd"
viewBox="0 0 1430 1430"
 xmlns:xlink="http://www.w3.org/1999/xlink">
 <defs>
  <style type="text/css">
   <![CDATA[
    .fil0 {fill:black}
   ]]>
  </style>
 </defs>
 <g id="Слой_x0020_1">
  <metadata id="CorelCorpID_0Corel-Layer"/>
  <path class="fil0" d="M573 33c91,-38 193,-38 284,0l240 100c91,38 163,110 200,200l100 240c38,91 38,193 0,284l-100 240c-38,91 -110,163 -200,200l-240 100c-91,38 -193,38 -284,0l-240 -100c-91,-38 -163,-110 -200,-200l-100 -240c-38,-91 -38,-193 0,-284l100 -240c38,-91 110,-163 200,-200l240 -100zm24 543c-2,0 -6,0 -11,0l-168 0c-15,0 -26,-12 -26,-26 0,-15 12,-26 26,-26l168 0c1,0 1,0 2,0 9,0 18,0 27,3 8,3 15,7 21,12 7,6 12,14 16,22 0,1 1,1 1,2l168 279c3,5 5,8 6,10 1,1 1,1 1,2 1,1 1,1 2,1 0,0 1,0 2,0 2,0 6,0 11,0l168 0c15,0 26,12 26,26 0,15 -12,26 -26,26l-168 0c-1,0 -1,0 -2,0 -9,0 -18,0 -27,-3 -8,-3 -15,-7 -21,-12 -7,-6 -12,-14 -16,-22 0,-1 -1,-1 -1,-2l21 -13 -21 13 -168 -279c-3,-5 -5,-8 -6,-10 -1,-1 -1,-1 -1,-2 -1,-1 -1,-1 -2,-1 0,0 -1,0 -2,0zm4 1c0,0 0,0 0,0l0 0zm227 275c0,0 0,0 0,0l0 0zm-41 -303c0,-15 12,-26 26,-26l198 0c15,0 26,12 26,26 0,15 -12,26 -26,26l-198 0c-15,0 -26,-12 -26,-26z"/>
 </g>
</svg>
