<?xml version="1.0" encoding="UTF-8"?>
<!DOCTYPE svg PUBLIC "-//W3C//DTD SVG 1.1//EN" "http://www.w3.org/Graphics/SVG/1.1/DTD/svg11.dtd">
<!-- Creator: CorelDRAW X6 -->
<svg xmlns="http://www.w3.org/2000/svg" xml:space="preserve" width="5.85mm" height="5.85mm" version="1.1" style="shape-rendering:geometricPrecision; text-rendering:geometricPrecision; image-rendering:optimizeQuality; fill-rule:evenodd; clip-rule:evenodd"
viewBox="0 0 585 585"
 xmlns:xlink="http://www.w3.org/1999/xlink">
 <defs>
  <style type="text/css">
   <![CDATA[
    .fil0 {fill:black}
   ]]>
  </style>
 </defs>
 <g id="Слой_x0020_1">
  <metadata id="CorelCorpID_0Corel-Layer"/>
  <path class="fil0" d="M584 294c0,-161 -130,-291 -291,-291 -161,0 -291,130 -291,291 0,145 106,266 246,288l0 -203 -74 0 0 -84 74 0 0 -64c0,-73 43,-113 110,-113 32,0 65,6 65,6l0 72 -37 0c-36,0 -47,22 -47,45l0 55 81 0 -13 84 -68 0 0 203c139,-22 246,-142 246,-288l0 0z"/>
 </g>
</svg>
