<?xml version="1.0" encoding="UTF-8"?>
<!DOCTYPE svg PUBLIC "-//W3C//DTD SVG 1.1//EN" "http://www.w3.org/Graphics/SVG/1.1/DTD/svg11.dtd">
<!-- Creator: CorelDRAW X6 -->
<svg xmlns="http://www.w3.org/2000/svg" xml:space="preserve" width="6.6mm" height="5.8mm" version="1.1" style="shape-rendering:geometricPrecision; text-rendering:geometricPrecision; image-rendering:optimizeQuality; fill-rule:evenodd; clip-rule:evenodd"
viewBox="0 0 660 580"
 xmlns:xlink="http://www.w3.org/1999/xlink">
 <defs>
  <style type="text/css">
   <![CDATA[
    .fil0 {fill:black}
   ]]>
  </style>
 </defs>
 <g id="Слой_x0020_1">
  <metadata id="CorelCorpID_0Corel-Layer"/>
  <path class="fil0" d="M590 147c0,6 0,12 0,19 0,190 -135,410 -381,410l0 0c-73,0 -144,-22 -205,-65 11,1 21,2 32,2 60,0 119,-22 166,-62 -57,-1 -108,-41 -125,-100 20,4 41,3 60,-2 -63,-14 -107,-73 -107,-141 0,-1 0,-1 0,-2 19,11 39,17 61,18 -59,-42 -77,-127 -41,-192 68,90 168,145 276,151 -11,-50 4,-102 39,-138 54,-55 139,-52 190,6 30,-6 59,-18 85,-35 -10,33 -31,62 -59,80 27,-3 53,-11 77,-23 -18,29 -41,54 -67,75z"/>
 </g>
</svg>
