<?xml version="1.0" encoding="UTF-8"?>
<!DOCTYPE svg PUBLIC "-//W3C//DTD SVG 1.1//EN" "http://www.w3.org/Graphics/SVG/1.1/DTD/svg11.dtd">
<!-- Creator: CorelDRAW X6 -->
<svg xmlns="http://www.w3.org/2000/svg" xml:space="preserve" width="7.9mm" height="5.6mm" version="1.1" style="shape-rendering:geometricPrecision; text-rendering:geometricPrecision; image-rendering:optimizeQuality; fill-rule:evenodd; clip-rule:evenodd"
viewBox="0 0 790 560"
 xmlns:xlink="http://www.w3.org/1999/xlink">
 <defs>
  <style type="text/css">
   <![CDATA[
    .fil0 {fill:black}
   ]]>
  </style>
 </defs>
 <g id="Слой_x0020_1">
  <metadata id="CorelCorpID_0Corel-Layer"/>
  <path class="fil0" d="M412 558l-161 -3c-52,-1 -104,1 -155,-10 -78,-16 -83,-96 -89,-163 -8,-94 -5,-190 10,-284 8,-52 42,-84 93,-87 174,-12 349,-11 522,-5 18,1 37,3 55,7 89,16 91,107 97,183 6,77 3,154 -8,231 -9,63 -26,116 -97,122 -89,7 -177,12 -266,10 0,0 -1,0 -1,0zm-95 -160c67,-40 133,-79 200,-118 -67,-40 -133,-79 -200,-118l0 236z"/>
 </g>
</svg>
