<?xml version="1.0" encoding="UTF-8"?>
<!DOCTYPE svg PUBLIC "-//W3C//DTD SVG 1.1//EN" "http://www.w3.org/Graphics/SVG/1.1/DTD/svg11.dtd">
<!-- Creator: CorelDRAW X6 -->
<svg xmlns="http://www.w3.org/2000/svg" xml:space="preserve" width="10.5mm" height="8mm" version="1.1" style="shape-rendering:geometricPrecision; text-rendering:geometricPrecision; image-rendering:optimizeQuality; fill-rule:evenodd; clip-rule:evenodd"
viewBox="0 0 1050 800"
 xmlns:xlink="http://www.w3.org/1999/xlink">
 <defs>
  <style type="text/css">
   <![CDATA[
    .fil0 {fill:#FF6B00}
   ]]>
  </style>
 </defs>
 <g id="Слой_x0020_1">
  <metadata id="CorelCorpID_0Corel-Layer"/>
  <path class="fil0" d="M219 154l24 -42 2 -3 14 -23c27,-23 57,-19 94,-19l371 0 52 9 16 10c19,16 27,41 40,68l44 102 -702 0 46 -102zm-69 155l748 0 27 62 1 203 -189 0 -423 0 -189 0 0 -176 0 -20 11 -37 14 -33zm637 400c-14,-14 -23,-34 -23,-56l0 -26 159 0 0 26c0,22 -9,42 -23,56 -14,14 -34,23 -56,23 -22,0 -42,-9 -56,-23zm-658 -83l159 0 0 26c0,22 -9,42 -23,56 -14,14 -34,23 -56,23 -22,0 -42,-9 -56,-23 -14,-14 -23,-34 -23,-56l0 -26zm225 -605c-54,0 -95,-1 -134,40l-41 74 -52 120 -77 0c-15,0 -26,12 -26,26 0,15 12,26 26,26l54 0 -21 49 -3 40 0 189c-2,4 -4,9 -4,14l0 53c0,37 15,70 39,94 24,24 57,39 94,39 37,0 70,-15 94,-39 24,-24 39,-57 39,-94l0 -26 370 0 0 26c0,37 15,70 39,94 24,24 57,39 94,39 37,0 70,-15 94,-39 24,-24 39,-57 39,-94l0 -53c0,-5 -1,-10 -4,-14l0 -215 -16 -51 -1 -2 -4 -10 52 0c15,0 26,-12 26,-26 0,-15 -12,-26 -26,-26l-75 0 -53 -120 -1 -2 3 -2 -3 2c-22,-51 -44,-98 -107,-109l-68 -3 -344 0z"/>
 </g>
</svg>
