<svg width="32" height="39" viewBox="0 0 32 39" fill="none" xmlns="http://www.w3.org/2000/svg">
<path fill-rule="evenodd" clip-rule="evenodd" d="M8.19824 0.359902C8.25078 0.359923 8.30403 0.359943 8.35803 0.359943H23.8667C23.9207 0.359943 23.974 0.359923 24.0265 0.359902C25.2249 0.359441 26.0522 0.359122 26.8106 0.605585C27.4867 0.825298 28.1076 1.1861 28.6333 1.66366C29.2236 2.19989 29.6337 2.91832 30.2279 3.95907C30.254 4.0047 30.2804 4.05094 30.3071 4.09781L30.3322 4.14168C30.7606 4.89125 31.1161 5.51338 31.3511 6.02849C31.5887 6.54912 31.7761 7.10821 31.7133 7.70257C31.6234 8.55339 31.1761 9.3265 30.4808 9.8275C29.9959 10.1769 29.4174 10.2917 28.8474 10.3437C28.8293 10.3454 28.8111 10.347 28.7928 10.3485C28.9246 10.7162 28.9575 11.0913 28.957 11.4649C28.9565 11.8683 28.9145 12.3577 28.8656 12.9282L27.2511 31.7644C27.1651 32.7678 27.0955 33.5789 26.9869 34.2349C26.8749 34.9116 26.7102 35.5017 26.3925 36.0426C25.8857 36.9054 25.133 37.5974 24.2293 38.029C23.6632 38.2994 23.0611 38.4131 22.3773 38.4669C21.7146 38.519 20.9007 38.519 19.8939 38.519H12.331C11.3241 38.519 10.51 38.519 9.84705 38.4669C9.16319 38.4131 8.56089 38.2995 7.99472 38.029C7.09119 37.5975 6.33802 36.9056 5.83113 36.0426C5.51338 35.5017 5.34875 34.9115 5.23674 34.2349C5.12819 33.5791 5.0587 32.7683 4.97274 31.7654L4.44298 25.5849C4.44045 25.5635 4.43859 25.5419 4.43743 25.5201L4.09838 21.5645C4.09611 21.5449 4.0944 21.5251 4.09329 21.5051L3.35826 12.9298C3.30928 12.3586 3.26727 11.8687 3.26676 11.4648C3.26629 11.0912 3.29932 10.7161 3.43108 10.3485C3.4129 10.3469 3.39488 10.3454 3.377 10.3437C2.80705 10.2916 2.22877 10.1768 1.74395 9.8275C1.04905 9.32677 0.600964 8.55385 0.511026 7.70257C0.448223 7.10812 0.635728 6.54897 0.873342 6.0284C1.10823 5.5138 1.46338 4.89233 1.89118 4.14372L1.91741 4.09781C1.9442 4.05093 1.97061 4.00468 1.99666 3.95905C2.59084 2.91831 3.001 2.19989 3.59128 1.66366C4.11715 1.18595 4.73844 0.825227 5.41433 0.605586C6.17277 0.359122 6.99983 0.359441 8.19824 0.359902ZM7.52007 8.3953C7.49304 8.39529 7.46618 8.39529 7.43951 8.3953H5.57135C4.64616 8.3953 4.02127 8.39428 3.55905 8.35203C3.09192 8.30934 2.9544 8.23458 2.91318 8.20488C2.68045 8.03718 2.53015 7.77819 2.49996 7.49244C2.49464 7.44211 2.49792 7.28576 2.69277 6.85888C2.88555 6.43652 3.19482 5.89349 3.6539 5.09009C4.35871 3.85667 4.61012 3.44015 4.93609 3.14403C5.25249 2.8566 5.62613 2.63971 6.03244 2.50767C6.45128 2.37157 6.93745 2.35994 8.35803 2.35994H23.8667C25.2873 2.35994 25.7737 2.37157 26.1925 2.50767C26.5986 2.63964 26.9719 2.85644 27.2885 3.14403C27.6144 3.44015 27.8658 3.85667 28.5707 5.09009C29.0297 5.89344 29.3389 6.43647 29.5316 6.85879C29.7264 7.28561 29.7297 7.44202 29.7244 7.49244C29.6941 7.77866 29.5439 8.03745 29.3116 8.20488C29.2704 8.23453 29.1328 8.30932 28.6654 8.35203C28.203 8.39428 27.5779 8.3953 26.6528 8.3953H24.7849C24.7582 8.39529 24.7313 8.39529 24.7043 8.3953H7.52007ZM7.56057 10.3953C6.93583 10.3953 6.52959 10.3961 6.22164 10.4221C5.92435 10.4472 5.81695 10.49 5.76653 10.5173C5.56881 10.6245 5.41264 10.7946 5.32275 11.0007C5.29981 11.0533 5.26638 11.164 5.26676 11.4623C5.26715 11.7714 5.301 12.1762 5.35435 12.7986L6.01004 20.4483H26.2137L26.8694 12.7986C26.9227 12.1761 26.9566 11.7713 26.957 11.4622C26.9574 11.1638 26.924 11.0532 26.9011 11.0007C26.8109 10.7938 26.655 10.6241 26.4581 10.5173C26.4077 10.49 26.3003 10.4472 26.0029 10.4221C25.6948 10.3961 25.2885 10.3953 24.6638 10.3953H7.56057ZM26.0422 22.4483H6.18147L6.35441 24.466H25.8693L26.0422 22.4483ZM25.6979 26.466H6.52584L6.96199 31.5544C7.05224 32.6073 7.11572 33.3394 7.20989 33.9083C7.30204 34.465 7.41238 34.7858 7.55564 35.0296C7.86068 35.549 8.31364 35.9649 8.8567 36.2243C9.11188 36.3462 9.4411 36.4288 10.0039 36.473C10.579 36.5183 11.314 36.519 12.3708 36.519H19.8539C20.9107 36.519 21.6455 36.5183 22.2204 36.473C22.783 36.4288 23.1121 36.3462 23.3673 36.2243C23.9102 35.965 24.3629 35.5492 24.668 35.0297C24.8113 34.7857 24.9216 34.4649 25.0138 33.9082C25.108 33.3394 25.1715 32.6073 25.2617 31.5544L25.6979 26.466Z" fill="#FF7500"/>
</svg>
