<?xml version="1.0" encoding="UTF-8"?>
<!DOCTYPE svg PUBLIC "-//W3C//DTD SVG 1.1//EN" "http://www.w3.org/Graphics/SVG/1.1/DTD/svg11.dtd">
<!-- Creator: CorelDRAW X6 -->
<svg xmlns="http://www.w3.org/2000/svg" xml:space="preserve" width="10.5mm" height="8mm" version="1.1" style="shape-rendering:geometricPrecision; text-rendering:geometricPrecision; image-rendering:optimizeQuality; fill-rule:evenodd; clip-rule:evenodd"
viewBox="0 0 1050 800"
 xmlns:xlink="http://www.w3.org/1999/xlink">
 <defs>
  <style type="text/css">
   <![CDATA[
    .fil0 {fill:#FF6B00;fill-rule:nonzero}
   ]]>
  </style>
 </defs>
 <g id="Слой_x0020_1">
  <metadata id="CorelCorpID_0Corel-Layer"/>
  <path class="fil0" d="M352 555c-10,11 -27,11 -37,1 -11,-10 -11,-27 -1,-37 13,-14 28,-27 45,-39 16,-12 34,-21 52,-29 18,-8 37,-14 57,-18 19,-4 39,-6 59,-6 20,0 40,2 59,6l1 0c19,4 38,10 55,17 18,8 36,17 52,29 16,11 31,24 45,39 10,11 10,27 -1,37 -11,10 -27,10 -37,-1 -11,-12 -23,-22 -37,-32 -13,-9 -27,-17 -42,-24 -15,-6 -30,-11 -45,-14l-1 0c-16,-3 -32,-5 -48,-5 -16,0 -32,2 -48,5 -16,3 -31,8 -46,15 -15,7 -29,15 -42,24 -13,9 -25,20 -36,32zm-116 -161c-10,11 -27,11 -37,1 -11,-10 -11,-27 -1,-37 21,-22 44,-43 69,-60l2 -1c25,-17 51,-32 78,-44 28,-12 57,-22 87,-28 30,-6 60,-10 91,-10 31,0 61,3 91,9 30,6 59,15 87,27 28,12 55,27 80,45 25,17 48,37 69,60 10,11 10,27 -1,37 -11,10 -27,10 -37,-1 -19,-20 -39,-37 -61,-53 -22,-15 -46,-28 -71,-39 -25,-11 -51,-19 -77,-24 -26,-5 -53,-8 -81,-8 -27,0 -54,3 -80,9 -26,6 -52,14 -77,25 -24,11 -48,24 -69,39l-1 1c-22,16 -42,33 -61,53zm-155 -144c-10,11 -27,11 -37,1 -11,-10 -11,-27 -1,-37 31,-33 65,-63 102,-89 37,-26 76,-48 117,-66 41,-18 84,-32 128,-41 44,-9 89,-14 134,-14 45,0 90,4 134,13 44,9 87,22 129,40 41,18 81,40 118,66 37,26 71,55 102,88 10,11 10,27 -1,37 -11,10 -27,10 -37,-1 -29,-30 -60,-57 -94,-81 -34,-24 -70,-44 -108,-60 -38,-16 -78,-29 -119,-37 -41,-8 -82,-12 -124,-12 -41,0 -83,5 -123,13 -40,9 -80,21 -118,38 -38,17 -74,37 -108,61 -34,24 -65,51 -93,82zm445 547c-22,0 -42,-9 -56,-23l0 0 0 0 0 0c-14,-14 -23,-34 -23,-56 0,-22 9,-42 23,-56 14,-14 34,-23 56,-23 22,0 42,9 56,23 14,14 23,34 23,56 0,22 -9,42 -23,56l0 0 0 0 0 0c-14,14 -34,23 -56,23zm-19 -61c5,5 11,8 19,8 7,0 14,-3 19,-8l0 0c5,-5 8,-11 8,-19 0,-7 -3,-14 -8,-19 -5,-5 -11,-8 -19,-8 -7,0 -14,3 -19,8 -5,5 -8,11 -8,19 0,7 3,14 8,19l0 0z"/>
 </g>
</svg>
